<svg width="813" height="903" viewBox="0 0 813 903" fill="none" xmlns="http://www.w3.org/2000/svg">
<path fill-rule="evenodd" clip-rule="evenodd" d="M383.327 0.598089C345.131 2.62109 300.712 11.9641 264.122 25.6711C142.367 71.2831 50.3786 171.307 14.8316 296.738C3.70462 336.003 -0.86839 373.598 0.13461 417.573C1.31461 469.311 10.4236 512.239 30.4136 560.261C63.2696 639.193 114.272 700.876 183.827 745.801C241.778 783.231 302.635 804.482 369.412 810.606C387.809 812.294 442.383 811.423 458.327 809.188C508.184 802.2 560.656 784.612 604.558 760.174C612.615 755.689 612.798 755.64 613.281 757.844C613.553 759.083 617.613 786.871 622.304 819.596C630.836 879.118 632.17 886.565 635.835 895.114C639.152 902.852 647.149 904.567 652.158 898.615C657.223 892.595 657.682 887.589 662.337 787.596C663.706 758.171 665.111 730.496 665.459 726.096L666.09 718.096L671.582 713.596C681.432 705.525 705.095 681.334 715.621 668.574C748.474 628.75 775.429 580.628 791.505 533.096C806.88 487.642 814.549 433.791 811.867 390.126C808.634 337.507 802.976 306.549 789.288 266.596C755.741 168.679 674.444 79.2911 580.196 36.6951C520.456 9.69509 451.228 -2.99791 383.327 0.598089ZM389.827 10.2951C378.534 10.8391 355.822 13.6291 341.827 16.1911C276.919 28.0741 214.832 57.0511 163.327 99.5001C151.593 109.171 128.931 131.451 117.929 144.135C66.5626 203.346 35.1116 275.036 25.1586 355.596C22.9346 373.597 22.6396 423.066 24.6546 440.096C32.8396 509.283 59.9946 579.315 98.9236 631.633C112.12 649.368 121.281 659.806 137.964 676.117C155.619 693.379 171.544 706.423 191.395 719.882C246.387 757.164 301.55 778.532 365.327 787.254C385.396 789.999 434.673 789.775 456.327 786.841C493.102 781.858 527.19 773.079 560.827 759.927C575.656 754.129 608.83 737.751 609.552 735.872C610.605 733.126 604.826 712.585 603.005 712.602C602.632 712.606 599.852 716.019 596.827 720.187C579.907 743.501 567.425 745.689 557.421 727.096C555.942 724.346 553.021 720.108 550.931 717.679L547.131 713.262L543.729 715.815C532.23 724.443 513.129 729.584 492.535 729.592C480.6 729.597 470.12 727.562 458.703 723.024C453.96 721.139 448.96 719.596 447.591 719.596C446.223 719.596 442.208 720.909 438.67 722.513C428.289 727.22 418.409 728.893 400.827 728.92C390.035 728.937 383.049 728.443 377.827 727.293C368.793 725.304 354.189 718.246 347.327 712.553C342.191 708.292 336.827 701.34 336.827 698.946C336.827 697.882 334.083 697.596 323.899 697.596C309.456 697.596 299.153 696.43 287.414 693.467C267.589 688.464 260.025 679.678 257.939 659.232C257.385 653.806 256.719 649.155 256.459 648.895C256.199 648.635 252.463 648.002 248.157 647.49C229.965 645.323 209.596 637.274 200.475 628.647L195.088 623.553L187.836 641.075L180.583 658.597L186.326 665.138C193.005 672.745 207.3 686.094 217.327 694.087C239.759 711.968 262.811 723.629 288.78 730.231C297.383 732.418 299.768 733.639 299.812 735.877C299.85 737.827 296.174 737.517 285.189 734.644C249.723 725.37 217.698 705.34 187.354 673.453C182.602 668.46 178.57 664.537 178.394 664.736C178.217 664.934 177.13 666.966 175.978 669.251C173.627 673.915 169.515 677.596 166.657 677.596C163.505 677.596 160.086 674.702 158.472 670.667C154.774 661.426 151.837 629.584 151.823 598.596L151.813 578.096L148.288 575.695C142.866 572.002 134.424 562.391 131.844 556.972C129.899 552.887 129.394 549.671 128.733 537.156C128.19 526.88 125.989 510.073 121.68 483.317C115.938 447.66 115.539 444.197 116.894 441.757C118.066 439.646 120.331 438.455 127.849 435.994C141.188 431.628 148.934 428.205 159.485 422.013C171.251 415.108 183.854 404.655 190.827 396.017C200.521 384.007 201.543 383.303 205.893 385.631C208.663 387.114 208.353 391.842 205.125 397.351C203.259 400.535 202.801 402.087 203.646 402.369C206.541 403.334 214.549 408 217.998 410.731C222.498 414.295 229.652 424.94 232.861 432.846C234.145 436.009 235.577 438.596 236.044 438.596C236.511 438.596 239.135 437.46 241.876 436.071C262.164 425.791 280.733 430.652 293.282 449.529L297.88 456.444L307.103 452.131C328.49 442.131 338.826 443.514 353.69 458.368L361.053 465.725L367.942 458.249C376.893 448.535 382.556 445.592 392.273 445.606C397.568 445.613 400.574 446.2 404.327 447.959C420.362 455.474 431.545 471.095 440.443 498.403C442.828 505.721 445.08 512.197 445.448 512.793C445.817 513.388 447.614 509.687 449.442 504.567C462.408 468.252 483.535 444.28 503.856 442.826C516.513 441.92 525.692 447.359 535.799 461.75L540.559 468.528L545.802 459.948C554.908 445.047 567.632 434.905 579.506 433.085C585.651 432.143 594.86 434.874 602.749 439.977L609.529 444.363L612.804 436.229C619.184 420.387 626.164 410.797 635.825 404.598C638.576 402.832 640.827 401.264 640.827 401.113C640.827 400.962 639.252 398.223 637.327 395.026C635.402 391.829 633.827 388.625 633.827 387.905C633.827 386.11 637.485 382.596 639.354 382.596C640.193 382.596 645.931 387.658 652.104 393.846C658.276 400.034 665.884 406.595 669.008 408.427C683.891 417.151 700.482 422.197 711.226 421.269C718.397 420.649 721.372 421.649 722.203 424.958C722.801 427.34 717.206 492.292 712.884 533.146C711.717 544.177 710.94 557.858 711.039 565.646C711.272 584.03 708.859 592.003 700.138 601.669L696.915 605.242L698.421 610.669C701.094 620.298 701.284 634.577 698.931 648.868C695.743 668.22 695.664 668.036 703.408 659.262C746.651 610.267 779.519 546.662 793.232 485.441C804.057 437.111 804.619 381.606 794.805 330.078C775.876 230.686 716.638 139.555 632.827 80.8921C562.901 31.9481 474.346 6.22009 389.827 10.2951ZM524.827 76.0911C507.489 80.0021 491.411 92.9611 482.641 110.096C476.491 122.112 473.169 133.13 471.249 147.878C470.374 154.598 469.45 161.16 469.195 162.461C468.94 163.762 465.589 167.774 461.749 171.376C453.875 178.764 446.827 188.806 446.827 192.638C446.827 198.121 450.453 198.79 462.399 195.513C466.576 194.367 470.205 193.641 470.464 193.899C470.722 194.158 472.067 199.483 473.452 205.733C488.74 274.712 532.508 326.815 580.168 332.768C587.917 333.736 590.558 333.66 597.327 332.274C627.738 326.049 647.586 299.304 652.834 257.477L654.041 247.859L660.184 247.219C680.465 245.108 688.462 229.17 677.676 212.36C673.598 206.005 668.267 201.568 658.782 196.634C654.497 194.404 649.902 191.286 648.571 189.703C647.239 188.121 644.474 181.937 642.425 175.961C633.614 150.255 619.513 126.577 602.454 108.839C590.369 96.2721 582.726 90.2961 570.99 84.2341C555.228 76.0941 538.162 73.0831 524.827 76.0911ZM614.494 84.2631C613.091 85.6651 614.162 86.7471 625.577 95.4571C652.825 116.25 674.522 138.866 694.344 167.137C709.176 188.289 724.024 215.684 732.804 238.096C737.487 250.048 740.008 253.815 741.996 251.827C742.916 250.907 742.438 248.65 739.882 241.866C717.565 182.63 677.872 128.741 629.345 91.7951C619.338 84.1761 616.181 82.5751 614.494 84.2631ZM524.581 85.6801C517.582 87.3301 508.483 92.7551 502.291 98.9691C490.177 111.127 482.635 128.563 480.041 150.411L479.173 157.726L481.617 157.113C487.627 155.604 489.441 155.556 491.2 156.86C494.572 159.36 492.184 162.095 478.779 171.09C467.025 178.978 462.108 183.21 463.307 184.409C463.546 184.648 467.698 183.775 472.534 182.47C480.539 180.309 483.209 180.103 502.327 180.179C541.852 180.335 583.344 187.279 615.467 199.114C628.392 203.875 664.793 221.69 667.236 224.448C668.824 226.243 668.954 227.023 668.007 229.1C666.619 232.147 664.094 232.283 658.827 229.596C653.851 227.057 653.824 227.061 653.841 230.346C653.871 236.508 654.72 237.596 659.493 237.596C667.652 237.596 672.827 233.202 672.827 226.275C672.827 216.057 666.798 210.737 640.28 197.549C629.09 191.983 619.426 186.817 618.804 186.068C618.182 185.319 617.821 183.669 618 182.401C618.409 179.514 622.155 179.426 629.041 182.142C631.634 183.164 634.073 183.683 634.462 183.295C635.439 182.317 629.567 167.119 623.566 155.096C614.769 137.471 604.252 123.07 590.677 110.062C577.462 97.3981 564.786 89.9041 550.117 86.0831C543.933 84.4721 530.597 84.2621 524.581 85.6801ZM250.827 126.141C227.941 131.02 209.895 144.422 194.332 168.096C184.684 182.773 179.717 195.246 175.91 214.359C173.733 225.283 172.663 227.915 166.864 236.596C157.792 250.177 152.42 262.665 153.011 268.797C153.247 271.254 154.039 272.422 156.151 273.429C159.806 275.172 162.425 274.447 168.09 270.121C170.629 268.182 172.917 266.596 173.173 266.596C173.43 266.596 173.958 268.911 174.347 271.74C176.701 288.858 185.069 313.46 193.515 328.096C209.973 356.615 230.999 374.438 257.109 382.005C285.66 390.279 312.329 382.821 335.453 360.096C352.99 342.862 363.999 320.275 369.572 290.096C372.069 276.577 371.776 248.697 368.975 233.247C367.794 226.729 366.827 220.825 366.827 220.126C366.827 219.308 369.055 218.605 373.077 218.154C387.307 216.559 396.827 208.719 396.827 198.596C396.827 188.751 388.617 181.762 372.086 177.534C367.918 176.468 361.767 175.595 358.417 175.594C349.829 175.592 346.605 173.586 337.862 162.806C314.202 133.635 281.095 119.687 250.827 126.141ZM257.327 134.311C232.352 137.764 209.739 155.834 196.275 183.096C191.131 193.511 185.801 209.288 185.849 213.958C185.863 215.38 186.952 216.599 189.099 217.596C190.874 218.421 192.467 219.856 192.638 220.784C192.828 221.813 188.639 227.086 181.915 234.284C170.309 246.708 163.443 257.128 166.171 258.175C167.794 258.797 174.659 254.868 179.327 250.646C186.185 244.442 214.555 228.241 233.598 219.653C265.102 205.446 295.331 196.904 327.889 193.011C353.002 190.008 378.827 193.803 378.827 200.497C378.827 204.213 376.313 205.026 368.545 203.824C364.602 203.214 361.204 202.885 360.995 203.095C360.786 203.304 361.767 204.627 363.175 206.035C369.587 212.447 387.827 206.474 387.827 197.962C387.827 195.431 382.947 190.972 377.833 188.829C371.498 186.175 357.682 184.604 340.648 184.6C326.823 184.597 323.701 184.327 322.398 183.025C318.821 179.447 322.529 175.596 329.55 175.596C334.962 175.596 335.038 174.306 329.999 167.936C320.365 155.756 304.069 143.499 290.827 138.474C280.761 134.655 267.108 132.958 257.327 134.311ZM129.474 167.604C120.677 178.058 107.506 201.716 101.98 216.986C92.5216 243.126 89.4646 272.222 93.3246 299.373C94.9636 310.906 96.0696 313.824 98.4546 312.908C100.231 312.227 100.2 311.631 97.3416 291.596C95.9476 281.821 95.8736 278.146 96.8456 267.096C100.252 228.389 110.871 200.787 134.452 169.346L138.014 164.596H135.009C132.897 164.596 131.253 165.489 129.474 167.604ZM487.827 189.506C481.045 190.474 480.568 191.019 481.323 196.954C482.126 203.269 484.832 213.481 485.872 214.124C486.294 214.384 488.218 212.399 490.148 209.712C496.557 200.791 505.389 195.851 516.609 194.912C530.814 193.722 542.315 198.451 555.445 210.879C574.144 228.579 583.22 247.707 584.491 272.096C585.509 291.624 582.14 301.478 570.628 312.653L563.775 319.306L569.382 321.069C605.277 332.36 634.869 308.823 642.901 262.596C644.334 254.346 644.775 228.699 643.558 224.348C641.657 217.55 602.46 202.589 569.827 196.205C540.372 190.443 502.777 187.372 487.827 189.506ZM324.823 202.66C286.834 206.699 238.37 224.468 197.528 249.331C183.579 257.823 182.431 259.255 183.292 267.096C186.827 299.277 201.87 330.82 223.73 351.893C233.814 361.615 243.356 367.612 255.598 371.922C262.926 374.503 266.186 375.061 275.911 375.397C292.846 375.982 302.963 372.939 319.107 362.406L325.886 357.983L318.107 353.072C281.863 330.195 271.83 288.604 293.265 250.096C298.546 240.608 307.929 231.486 315.472 228.504C326.935 223.972 341.158 225.808 353.324 233.388C356.073 235.101 358.647 236.176 359.044 235.779C360.084 234.739 351.303 203.512 349.682 202.485C348.063 201.46 335.267 201.549 324.823 202.66ZM506.676 207.06C503.438 208.888 499.827 216.024 499.827 220.596C499.827 228.282 506.916 237.105 513.984 238.218C522.641 239.58 529.058 233.844 529.058 224.742C529.058 212.177 515.952 201.823 506.676 207.06ZM531.827 207.187C531.827 207.511 533.797 210.099 536.204 212.937C545.8 224.247 551.752 235.782 554.262 247.936C558.847 270.131 552.088 287.397 536.199 294.077C534.479 294.8 532.792 295.843 532.451 296.395C531.674 297.652 541.544 306.76 547.404 310.194C551.31 312.483 552.169 312.638 555.273 311.614C559.925 310.079 568.42 302.311 571.029 297.209C581.99 275.772 572.778 240.308 550.697 218.929C543.081 211.556 531.827 204.552 531.827 207.187ZM315.666 241.059C306.783 247.095 305.061 262.379 312.898 265.625C316.677 267.191 321.512 265.553 325.588 261.327C329.435 257.339 330.827 253.793 330.827 247.985C330.827 239.332 323.281 235.885 315.666 241.059ZM297.95 262.688C289.309 281.818 290.111 303.832 300.098 321.596C304.506 329.436 317.027 341.652 324.015 344.929C331.362 348.374 333.377 348.289 337.026 344.383C339.804 341.409 348.827 326.963 348.827 325.489C348.827 325.133 344.832 324.65 339.95 324.416C332.506 324.06 330.028 323.477 324.595 320.803C309.074 313.162 299.817 295.663 299.888 274.096C299.902 269.696 300.305 264.071 300.784 261.596C301.262 259.121 301.471 256.912 301.249 256.688C301.027 256.464 299.542 259.164 297.95 262.688ZM629.158 322.592C621.793 328.902 607.695 336.027 597.327 338.68C586.935 341.339 568.377 342.274 558.125 340.654C553.836 339.976 546.995 338.316 542.922 336.964C535.525 334.509 533.182 334.752 534.371 337.851C535.585 341.014 549.882 345.205 563.859 346.495C580.788 348.057 599.873 344.869 614.752 337.995C625.514 333.022 639.827 321.684 639.827 318.131C639.827 317.837 638.738 317.596 637.408 317.596C635.95 317.596 632.672 319.581 629.158 322.592ZM647.964 343.459C645.305 346.118 645.24 348.755 647.776 351.05C649.262 352.395 652.557 353.025 661.657 353.703C701.529 356.673 732.116 379.14 741.874 412.623C743.537 418.33 744.17 423.758 744.552 435.596C744.827 444.121 745.506 451.659 746.062 452.346C746.617 453.034 748.356 453.596 749.926 453.596C754.415 453.596 755.929 450.224 756.534 438.88C757.838 414.417 748.62 389.602 731.967 372.752C713.179 353.741 689.233 343.434 660.214 341.868C650.827 341.362 649.947 341.476 647.964 343.459ZM155.142 350.604C136.769 353.29 118.314 363.035 104.943 377.11C96.3666 386.139 90.8686 395.329 86.7036 407.596C83.7176 416.389 83.4466 418.286 83.0616 433.096C82.7096 446.604 82.9736 450.697 84.7606 459.375C88.6046 478.048 92.6806 485.35 97.7476 482.638C100.06 481.401 101.311 477.674 100.537 474.328C100.254 473.1 98.7946 467.596 97.2966 462.096C94.9336 453.427 94.5716 450.232 94.5746 438.096C94.5796 421.523 96.4796 412.912 102.827 400.712C117.765 372 148.741 357.343 182.676 362.932C188.629 363.912 192.866 364.151 194.341 363.591C199.086 361.787 198.267 355.51 193.016 353.44C185.334 350.413 166.233 348.982 155.142 350.604ZM339.304 363.667C321.723 381.455 306.454 389.949 280.119 396.589C274.91 397.903 273.96 399.244 277.195 400.718C281.618 402.733 301.859 396.621 314.827 389.354C329.671 381.037 349.827 362.713 349.827 357.535C349.827 354.056 347.41 355.465 339.304 363.667ZM644.554 416.086C642.032 416.727 638.41 418.439 636.506 419.892C629.133 425.515 622.083 437.894 619.71 449.384L618.468 455.398L624.084 466.297C639.919 497.027 649.815 545.295 649.825 591.846L649.827 603.596H657.617C666.248 603.596 674.581 601.756 682.663 598.065C699.307 590.464 702.795 581.349 700.825 550.616C697.889 504.821 690.018 465.765 679.359 444.096C668.227 421.465 657.468 412.807 644.554 416.086ZM189.969 418.237C183.958 420.44 172.938 431.117 166.159 441.305C154.214 459.258 142.254 498.046 138.937 529.596C137.828 540.145 138.444 545.051 141.664 551.312C143.941 555.739 152.885 563.822 160.081 567.956C165.915 571.308 185.877 577.946 186.936 576.887C187.851 575.972 194.827 526.524 194.827 520.948C194.827 518.097 194.276 517.356 190.867 515.616C188.343 514.329 184.951 513.596 181.515 513.596C174.733 513.596 170.623 516.162 165.874 523.361C162.056 529.151 159.435 530.025 157.649 526.106C155.386 521.139 162.866 510.552 171.045 507.145C175.768 505.177 183.762 505.168 191.259 507.12C194.478 507.959 197.27 508.486 197.465 508.292C197.659 508.098 199.609 502.423 201.799 495.682C206.861 480.1 213.254 466.603 220.413 456.386C225.591 448.997 225.993 448.033 225.41 444.391C223.994 435.537 215.313 423.415 207.554 419.456C202.271 416.761 195.313 416.279 189.969 418.237ZM256.234 445.627C242.17 448.415 230.282 459.069 220.391 477.747C208.344 500.499 199.313 543.002 198.104 582.645C197.445 604.24 198.538 609.36 205.24 616.062C214.04 624.862 240.706 634.211 252.953 632.792C255.426 632.505 255.614 632.097 256.175 625.792C256.503 622.109 256.88 607.91 257.013 594.239C257.302 564.632 258.11 566.438 244.689 566.682C235.314 566.853 233.827 566.439 233.827 563.659C233.827 560.124 236.679 559.133 247.967 558.746C258.539 558.385 258.827 558.313 258.827 556.065C258.827 554.165 260.854 541.617 264.516 520.846L265.089 517.596H259.995C254.459 517.596 245.267 514.598 241.618 511.602C239.758 510.075 239.535 509.38 240.434 507.909C242.052 505.259 244.386 505.16 249.842 507.507C255.629 509.997 261.976 510.2 265.329 508.003C268.534 505.903 287.827 468.545 287.827 464.439C287.827 456.976 276.722 447.293 266.185 445.567C262.963 445.039 260.327 444.654 260.327 444.711C260.327 444.768 258.485 445.18 256.234 445.627ZM575.327 448.823C564.854 452.556 552.69 466.462 548.278 479.743C546.692 484.518 546.725 484.93 549.708 497.364C557.675 530.581 562.798 573.364 565.899 632.596C566.547 644.971 567.284 655.321 567.536 655.596C567.789 655.871 575.045 656.095 583.661 656.094C597.274 656.092 600.31 655.785 606.827 653.753C626.425 647.642 636.04 638.716 638.736 624.131C640.025 617.158 640.113 585.326 638.892 567.596C637.257 543.85 634.116 538.72 607.077 515.649C602.885 512.072 602.68 508.227 606.577 506.258C608.09 505.494 613.076 503.634 617.658 502.123C627.317 498.94 627.083 499.984 621.319 485.773C609.89 457.598 591.703 442.986 575.327 448.823ZM498.151 458.45C480.482 464.556 463.325 490.101 454.887 522.867C453.316 528.969 452.258 534.555 452.536 535.279C452.914 536.266 456.019 536.596 464.934 536.596C475.419 536.596 477.059 536.828 478.79 538.559C480.593 540.362 480.644 540.872 479.414 544.809C478.677 547.167 474.384 557.176 469.874 567.051C460.657 587.232 457.573 595.912 456.005 606.096C455.151 611.645 453.408 672.665 453.34 699.403C453.324 705.718 454.782 707.192 464.228 710.411C473.945 713.722 480.706 714.686 494.458 714.722C509.891 714.762 518.891 712.98 530.524 707.58C546.227 700.292 553.894 689.91 555.933 673.176C557.487 660.428 554.502 599.1 551.721 586.641C547.796 569.053 536.155 552.431 520.791 542.476C515.454 539.018 513.956 536.093 515.777 532.689C516.835 530.713 517.706 530.596 531.362 530.596C543.525 530.596 545.827 530.358 545.827 529.103C545.827 528.281 544.681 521.734 543.281 514.552C537.31 483.928 527.65 464.682 515.383 458.97C509.364 456.167 505.126 456.039 498.151 458.45ZM321.639 460.675C302.977 463.611 284.66 486.847 275.981 518.596C269.012 544.088 266.44 569.25 266.576 610.596C266.7 648.246 267.75 663.964 270.444 668.525C274.005 674.553 283.586 678.834 299.827 681.656C308.813 683.217 333.33 683.527 334.62 682.096C335.156 681.501 335.005 674.008 334.248 663.596C333.548 653.971 332.942 644.649 332.901 642.881C332.805 638.715 327.754 632.894 322.045 630.368C319.69 629.327 314.515 628.216 310.545 627.899C298.553 626.944 298.102 625.023 307.221 613.727C322.584 594.698 329.652 577.288 337.317 539.596C341.584 518.614 345.724 502.725 349.81 491.643C353.399 481.909 353.529 479.068 350.664 472.974C346.327 463.746 334.358 458.674 321.639 460.675ZM383.271 461.914C373.331 466.653 365.262 479.382 357.479 502.596C342.271 547.962 338.392 603.064 345.405 674.096C347.436 694.661 348.008 696.769 352.601 700.591C359.843 706.616 376.547 713.55 383.903 713.584C389.153 713.608 393.433 705.987 394.39 694.909C394.768 690.532 393.342 668.383 390.403 632.972C385.156 569.761 385.167 570.02 387.603 568.716C390.059 567.401 392.544 569.003 393.244 572.352C394.299 577.405 402.827 683.197 402.827 691.238C402.827 698.188 402.181 701.969 399.194 712.503L398.511 714.911L409.419 714.211C426.108 713.139 437.201 709.736 441.069 704.5C444.112 700.382 445.142 678.42 444.441 632.596C443.34 560.611 438.353 519.122 427.693 493.271C416.999 467.338 398.815 454.502 383.271 461.914ZM770.033 461.285C769.521 462.281 767.18 468.271 764.829 474.596C756.699 496.475 746.423 516.148 736.352 529.118C731.345 535.567 730.485 538.935 733.978 538.416C737.388 537.909 748.951 520.905 757.655 503.596C765.691 487.615 774.141 465.725 773.622 462.234C773.227 459.579 771.186 459.04 770.033 461.285ZM655.494 475.263C654.013 476.743 655.023 479.787 658.767 485.132C669.262 500.114 674.138 522.14 670.825 539.605C670.108 543.385 670.143 545.272 670.948 546.241C672.832 548.512 675.786 547.826 676.955 544.846C678.716 540.357 679.246 521.636 677.831 513.966C674.049 493.48 660.592 470.164 655.494 475.263ZM389.083 501.129C387.998 501.889 386.048 504.893 384.749 507.804C381.3 515.538 381.397 526.08 384.989 533.76C388.249 540.732 390.91 542.513 393.781 539.642C395.149 538.274 395.531 537.083 394.993 535.87C394.56 534.894 393.4 532.315 392.416 530.139C389.77 524.287 390.063 515.882 393.138 509.413C394.858 505.793 395.37 503.611 394.765 502.481C393.474 500.068 391.328 499.557 389.083 501.129ZM670.902 658.596C670.856 659.421 670.151 667.296 669.335 676.096C668.519 684.896 667.845 692.697 667.839 693.431C667.832 694.165 670.736 692.212 674.29 689.091L680.754 683.416L678.824 680.756C677.762 679.293 675.716 673.821 674.276 668.596C671.05 656.887 671.004 656.751 670.902 658.596Z" fill="white"/>
</svg>
